<svg xmlns="http://www.w3.org/2000/svg" fill="none" viewBox="0 0 32 32"><path fill="#646CFF" d="M31.956 14.8C31.478 7.566 28.118 1.522 22.314.072 14.37-1.896 6.256 2.186 2.666 8.886c-3.59 6.7-2.4 14.86 2.75 20.08.22.22.468.408.74.56 5.206 2.974 11.05 2.214 15.496-.488 5.082-3.09 8.18-9.048 8.304-14.238Zm-8.534-5.18c-.336 1.576-1.318 2.95-2.524 3.73 2.164-.06 4.368-.028 6.568.056l-.102 1.03c-2.066-.078-4.108-.122-6.164-.132.82 1.52 2.036 2.636 3.488 3.276l-.584.972a9.66 9.66 0 0 1-3.694-3.01c-.14.294-.302.576-.484.846a9.752 9.752 0 0 1-1.16 1.4l-.836-.68c.618-.626 1.1-1.48 1.376-2.468-.604.272-1.368.46-2.222.514l-.364-1.06c.408.024.772.03 1.104.024a6.349 6.349 0 0 0 .686-1.192 4.746 4.746 0 0 0 .336-1.126l1.18.18Z"/></svg>
